<svg width="332" height="335" viewBox="0 0 332 335" fill="none" xmlns="http://www.w3.org/2000/svg">
<g clip-path="url(#clip0_11_2)">
<rect width="332" height="335" rx="50" fill="white"/>
<path d="M0 0H332V335H0V0Z" fill="#85CC9D"/>
<path d="M310.698 256C310.698 252.717 311.442 241.355 307.698 238.322C303.954 235.289 295.796 240.644 288.878 238.322C281.96 236.001 273.747 234.159 264.708 232.903C255.669 231.647 245.982 231 236.198 231C226.415 231 216.727 231.647 207.688 232.903C198.65 234.159 190.437 236.001 183.519 238.322C176.601 240.644 167.942 238.119 164.198 241.152C160.454 244.185 161.698 252.717 161.698 256L164.198 259C164.198 256.89 189.545 251.8 191.952 249.85C194.359 247.9 197.886 246.128 202.334 244.636C206.781 243.144 212.06 241.96 217.871 241.152C223.681 240.345 229.909 239.929 236.198 239.929C242.487 239.929 248.715 240.345 254.526 241.152C260.336 241.96 265.616 243.144 270.063 244.636C274.51 246.128 282.198 246.433 282.198 249.85C286.952 246.433 307.698 258.39 307.698 260.5L310.698 256Z" fill="#ECEDD7"/>
<path d="M167.5 257.903C167.5 254.62 168.244 243.259 164.5 240.225C160.756 237.192 152.597 242.547 145.679 240.225C138.761 237.904 130.549 236.062 121.51 234.806C112.471 233.55 102.783 232.903 93 232.903C83.2165 232.903 73.5289 233.55 64.4901 234.806C55.4513 236.062 47.2385 237.904 40.3205 240.225C33.4026 242.547 24.744 240.022 21 243.055C17.256 246.088 21 254.62 21 257.903L21 260.903C21 258.793 46.3469 253.703 48.7537 251.753C51.1605 249.803 54.6882 248.031 59.1353 246.539C63.5825 245.047 68.8621 243.863 74.6726 243.055C80.4831 242.248 86.7108 241.832 93 241.832C99.2893 241.832 105.517 242.248 111.327 243.055C117.138 243.863 122.418 245.047 126.865 246.539C131.312 248.031 139 248.336 139 251.753C143.754 248.336 164.5 260.293 164.5 262.403L167.5 257.903Z" fill="#ECEDD7"/>
<ellipse cx="94.2833" cy="120.686" rx="77.2833" ry="27.6858" fill="#ECEDD7"/>
<ellipse cx="238.747" cy="120.686" rx="74.2526" ry="27.6858" fill="#ECEDD7"/>
<rect x="21.041" y="117.162" width="288.928" height="124.838" fill="#ECEDD7"/>
<path d="M18 264.69C18 264.69 46.4651 243.67 96.9436 243.634C147.422 243.598 165.764 264.585 165.764 264.585" stroke="black" stroke-width="5"/>
<path d="M163 263.69C163 263.69 191.465 242.67 241.944 242.634C292.422 242.598 310.764 263.585 310.764 263.585" stroke="black" stroke-width="5"/>
<path d="M18 253.69C18 253.69 46.4651 232.67 96.9436 232.634C147.422 232.598 165.764 253.585 165.764 253.585" stroke="black" stroke-width="5"/>
<path d="M163 252.69C163 252.69 191.465 231.67 241.944 231.634C292.422 231.598 310.764 252.585 310.764 252.585" stroke="black" stroke-width="5"/>
<path d="M18 112.69C18 112.69 46.4651 91.6702 96.9436 91.6342C147.422 91.5982 165.764 112.585 165.764 112.585" stroke="black" stroke-width="5"/>
<path d="M163 112.69C163 112.69 191.465 91.6702 241.944 91.6342C292.422 91.5982 310.764 112.585 310.764 112.585" stroke="black" stroke-width="5"/>
<path d="M163.014 124.94C163.014 124.94 188.637 105.612 234.071 105.571C279.504 105.53 296.009 124.821 296.009 124.821" stroke="black" stroke-width="5" stroke-linecap="round" stroke-dasharray="15 15"/>
<path d="M30 125.94C30 125.94 55.6233 106.612 101.057 106.571C146.49 106.53 162.995 125.821 162.995 125.821" stroke="black" stroke-width="5" stroke-linecap="round" stroke-dasharray="15 15"/>
<line x1="164.482" y1="246.518" x2="163.518" y2="113.518" stroke="black" stroke-width="5" stroke-linecap="round" stroke-dasharray="15 15"/>
<line x1="311.5" y1="254.017" x2="310.507" y2="111.017" stroke="black" stroke-width="5"/>
<line x1="19.4931" y1="254.017" x2="18.5" y2="111.017" stroke="black" stroke-width="5"/>
<path d="M168.168 139.52C166.729 140.993 165.481 142.227 164.5 143.179C163.519 142.227 162.271 140.993 160.832 139.52C157.185 135.788 152.331 130.539 147.486 124.467C142.632 118.383 137.845 111.543 134.284 104.625C130.702 97.666 128.5 90.8928 128.5 84.875C128.5 75.8068 132.256 67.0786 138.992 60.6196C145.733 54.1558 154.906 50.5 164.5 50.5C174.094 50.5 183.267 54.1558 190.008 60.6196C196.744 67.0786 200.5 75.8068 200.5 84.875C200.5 90.8928 198.298 97.666 194.716 104.625C191.155 111.543 186.368 118.383 181.514 124.467C176.669 130.539 171.815 135.788 168.168 139.52ZM148.112 100.792C152.483 104.983 158.38 107.312 164.5 107.312C170.62 107.312 176.517 104.983 180.888 100.792C185.263 96.5967 187.75 90.8744 187.75 84.875C187.75 78.8756 185.263 73.1533 180.888 68.9579C176.517 64.7672 170.62 62.4375 164.5 62.4375C158.38 62.4375 152.483 64.7672 148.112 68.9579C143.737 73.1533 141.25 78.8756 141.25 84.875C141.25 90.8744 143.737 96.5967 148.112 100.792Z" fill="#FF5858" stroke="black" stroke-width="7"/>
</g>
<defs>
<clipPath id="clip0_11_2">
<rect width="332" height="335" rx="50" fill="white"/>
</clipPath>
</defs>
</svg>
